<?xml version="1.0" encoding="UTF-8"?>
<svg version="1.1" xmlns="http://www.w3.org/2000/svg" width="704" height="116">
<path d="M0 0 C6.48709074 3.99966597 11.28712102 10.22680988 13.5 17.5 C13.97680468 21.11614301 14.05507717 24.71524496 14.125 28.359375 C14.15803223 29.38556946 14.19106445 30.41176392 14.22509766 31.46905518 C14.36546808 35.83808449 14.47369549 40.20776043 14.58398438 44.57763672 C14.66934212 47.77618111 14.77167389 50.9738689 14.875 54.171875 C14.89385254 55.16249939 14.91270508 56.15312378 14.93212891 57.17376709 C14.96226074 58.091922 14.99239258 59.0100769 15.0234375 59.95605469 C15.0531665 61.16681671 15.0531665 61.16681671 15.08349609 62.40203857 C15.59915533 64.99945281 16.43934968 65.88232734 18.5 67.5 C21.5728764 68.63211236 23.02187379 68.66560598 26.12915039 67.58935547 C28.83430482 65.20538763 28.87307064 64.80456348 29.09936523 61.38330078 C29.11211278 59.65396494 29.09664395 57.92427668 29.05859375 56.1953125 C29.05626236 55.27918182 29.05393097 54.36305115 29.05152893 53.41915894 C29.04178404 51.4806793 29.01997985 49.5422285 28.98706055 47.60400391 C28.93780152 44.6431236 28.92558911 41.68390864 28.91992188 38.72265625 C28.90582949 36.83852407 28.8896228 34.95440627 28.87109375 33.0703125 C28.86573105 32.18683136 28.86036835 31.30335022 28.85484314 30.39309692 C28.75366499 24.20287032 28.75366499 24.20287032 26.5 18.5 C22.6177729 17.08828106 20.9413409 17.31202147 17.125 18.9375 C15.825625 19.7109375 15.825625 19.7109375 14.5 20.5 C14.21051353 14.90326161 14.26708864 11.2972233 17.5 6.5 C22.54701309 0.91891145 27.33844961 -0.99396565 34.69140625 -1.71484375 C42.0287062 -2.03385679 48.52235286 -0.36730284 54.3125 4.25 C57.58558534 7.2795069 59.5141319 10.5282638 61.5 14.5 C61.94730469 13.82453125 62.39460938 13.1490625 62.85546875 12.453125 C67.44490256 5.68150837 71.15199231 0.35511282 79.5 -1.5 C88.33520035 -2.28321372 96.21649364 -1.38462076 103.3125 4.25 C107.23609767 7.62138762 110.08060383 11.85753975 110.89457703 16.98608398 C111.06978922 19.90388212 111.1310888 22.80359506 111.15234375 25.7265625 C111.207499 27.91406713 111.2628432 30.101567 111.31835938 32.2890625 C111.38211728 35.71672709 111.43778407 39.14437695 111.48803711 42.57226562 C111.5434371 45.89531407 111.6279365 49.21671158 111.71484375 52.5390625 C111.72293312 54.07513657 111.72293312 54.07513657 111.73118591 55.64224243 C111.86470765 60.42374298 111.9518334 62.76914855 114.88891602 66.68505859 C117.32070359 68.74375953 117.32070359 68.74375953 120.0625 68.5 C122.58181315 67.46643563 124.43238905 66.26129821 126.5 64.5 C127.82314026 68.81458779 127.12122381 72.35509775 125.5 76.5 C122.69167143 81.06481044 118.91224436 84.40869662 113.765625 86.0546875 C104.97230473 87.78302976 96.14234567 87.34904479 88.5 82.5 C84.98102131 80.09067766 81.88987461 77.66962383 80.5 73.5 C80.5 72.51 80.5 71.52 80.5 70.5 C79.84 70.5 79.18 70.5 78.5 70.5 C78.273125 71.36625 78.04625 72.2325 77.8125 73.125 C75.8226813 78.24167666 73.17210969 81.51038406 68.4375 84.3125 C60.26893106 87.61468744 50.87245042 87.77516289 42.6015625 84.6171875 C37.18117829 81.73571931 33.04378934 77.44608635 29.5 72.5 C29.12488281 73.03109375 28.74976563 73.5621875 28.36328125 74.109375 C24.15133569 79.92334519 19.7722511 85.22809506 12.4921875 86.984375 C4.70321727 87.96158898 -3.15953168 87.1242351 -9.90234375 82.8203125 C-15.60949764 78.10388704 -18.19751775 72.71256488 -19.5 65.5 C-19.76438666 62.14873519 -19.77721589 58.81360014 -19.7734375 55.453125 C-19.79370564 53.53775435 -19.81455599 51.62238979 -19.8359375 49.70703125 C-19.85861603 46.71593011 -19.87504843 43.72507022 -19.88085938 40.73388672 C-19.89035935 37.82736804 -19.9240762 34.92190721 -19.9609375 32.015625 C-19.95589203 31.12079407 -19.95084656 30.22596313 -19.94564819 29.30401611 C-19.98578413 24.2651472 -19.98578413 24.2651472 -22.41650391 19.96386719 C-25.20796276 17.9857541 -25.20796276 17.9857541 -28.5 17.5 C-31.71712945 18.85814007 -31.71712945 18.85814007 -34.5 20.5 C-35.10942835 13.67440248 -33.82137418 9.82772159 -29.5 4.5 C-22.0154208 -2.61035024 -9.50347597 -4.21961801 0 0 Z M64.81884766 17.90649414 C61.37972273 21.75296962 61.77994989 25.11906071 61.8359375 30.12109375 C61.83115387 31.05800552 61.82637024 31.9949173 61.82144165 32.96022034 C61.81804248 34.93972453 61.82724617 36.91928485 61.84814453 38.89868164 C61.87488041 41.92396763 61.84841342 44.94553342 61.81640625 47.97070312 C61.81971093 49.89584151 61.82611838 51.82097757 61.8359375 53.74609375 C61.82075577 55.09942055 61.82075577 55.09942055 61.80526733 56.48008728 C61.88934439 61.00168672 62.02223385 62.89755513 64.91650391 66.54711914 C67.91293122 68.9354164 67.91293122 68.9354164 71.5 69.5 C74.29844381 68.1007781 76.28791383 66.71208617 78.5 64.5 C78.7248689 61.48486706 78.8281972 58.56447248 78.8359375 55.546875 C78.8425943 54.65389709 78.8492511 53.76091919 78.85610962 52.84088135 C78.86624787 50.94781558 78.87092628 49.05471398 78.87060547 47.16162109 C78.8749621 44.27510888 78.91122243 41.39014603 78.94921875 38.50390625 C78.95509011 36.66406772 78.95905736 34.82422194 78.9609375 32.984375 C78.97530853 32.12479187 78.98967957 31.26520874 79.00448608 30.37957764 C78.96360789 24.97228213 78.22082846 21.71699432 74.5 17.5 C70.50437955 16.1923424 68.56961347 15.93889608 64.81884766 17.90649414 Z " fill="#FE1B6C" transform="translate(45.5,22.5)"/>
<path d="M0 0 C4.12596703 -0.02492452 8.25190422 -0.04296521 12.37792969 -0.05493164 C13.77832809 -0.05992616 15.17872137 -0.06672408 16.57910156 -0.07543945 C30.898355 -0.16225376 30.898355 -0.16225376 38 1 C42.39255845 14.06583973 46.73873155 27.14077921 50.82836914 40.30517578 C51.10028076 41.17255371 51.37219238 42.03993164 51.65234375 42.93359375 C51.88945068 43.69728271 52.12655762 44.46097168 52.37084961 45.24780273 C52.86024647 47.00242884 52.86024647 47.00242884 54 48 C54.16873123 47.45542648 54.33746246 46.91085297 54.51130676 46.34977722 C56.26851446 40.68495606 58.03876019 35.02433003 59.81665039 29.3659668 C60.47853845 27.25340964 61.13708925 25.13980387 61.79223633 23.02514648 C62.73424913 19.98660253 63.68818009 16.95202576 64.64453125 13.91796875 C64.9352803 12.97100632 65.22602936 12.02404388 65.52558899 11.04838562 C65.80565292 10.16769913 66.08571686 9.28701263 66.37426758 8.37963867 C66.61631424 7.60464523 66.8583609 6.82965179 67.10774231 6.03117371 C68.10104018 3.76998779 69.08385944 2.54639102 71 1 C75.1731026 -0.02221602 79.2099553 -0.11804783 83.4921875 -0.09765625 C84.69101562 -0.09443359 85.88984375 -0.09121094 87.125 -0.08789062 C88.98125 -0.07532227 88.98125 -0.07532227 90.875 -0.0625 C92.13570313 -0.05798828 93.39640625 -0.05347656 94.6953125 -0.04882812 C97.79689545 -0.0370797 100.89845388 -0.01914535 104 0 C104.495 7.425 104.495 7.425 105 15 C102.69 15.66 100.38 16.32 98 17 C98.61594179 22.67314808 99.29553539 28.33718829 100 34 C100.13954102 35.13002441 100.27908203 36.26004883 100.42285156 37.42431641 C100.89003141 41.13943768 101.38019321 44.85096494 101.875 48.5625 C102.02420898 49.76293945 102.17341797 50.96337891 102.32714844 52.20019531 C103.34875293 59.66898069 104.46029372 66.46029372 110 72 C110.1953125 74.3828125 110.1953125 74.3828125 110.125 77.125 C110.10695313 78.03507812 110.08890625 78.94515625 110.0703125 79.8828125 C110.04710937 80.58148438 110.02390625 81.28015625 110 82 C102.19951614 83.04908894 94.49018371 83.21746563 86.625 83.25 C85.35527344 83.270625 84.08554687 83.29125 82.77734375 83.3125 C81.56433594 83.31765625 80.35132813 83.3228125 79.1015625 83.328125 C78.00150879 83.3374707 76.90145508 83.34681641 75.76806641 83.35644531 C73 83 73 83 71.13696289 81.64819336 C69.45186887 79.20540407 69.70929932 77.23651938 69.8125 74.3125 C69.85310547 72.82169922 69.85310547 72.82169922 69.89453125 71.30078125 C69.94673828 70.16189453 69.94673828 70.16189453 70 69 C72.64 68.67 75.28 68.34 78 68 C78.21171847 62.07188293 77.78839722 56.37518977 77.0625 50.5 C76.93222412 49.42202148 76.93222412 49.42202148 76.79931641 48.32226562 C76.60931034 44.86562754 76.60931034 44.86562754 75 42 C74.74831055 42.88671387 74.49662109 43.77342773 74.23730469 44.68701172 C73.28726388 48.02434574 72.33244253 51.36023836 71.37451172 54.6953125 C70.96345401 56.1299971 70.55422469 57.56520704 70.14697266 59.00097656 C63.86480648 81.13519352 63.86480648 81.13519352 61 84 C58.60240614 84.40501894 56.22273086 84.75408183 53.8125 85.0625 C52.8215332 85.19881836 52.8215332 85.19881836 51.81054688 85.33789062 C47.84635959 85.85836141 43.99615732 86.09322295 40 86 C35.76581924 77.29976668 33.09080973 68.15947627 30.25 58.9375 C29.73878002 57.29216265 29.22706539 55.64697891 28.71484375 54.00195312 C27.4708495 50.00305116 26.23357801 46.00212681 25 42 C24.13888484 45.02769315 23.81769107 47.84266637 23.68359375 50.984375 C23.64169922 51.91894531 23.59980469 52.85351562 23.55664062 53.81640625 C23.51732422 54.78449219 23.47800781 55.75257812 23.4375 56.75 C23.39431641 57.73355469 23.35113281 58.71710938 23.30664062 59.73046875 C23.20077948 62.15351275 23.09869829 64.5766554 23 67 C23.78375 67.0825 24.5675 67.165 25.375 67.25 C26.674375 67.62125 26.674375 67.62125 28 68 C30 72 30 72 30 83 C19.11 83 8.22 83 -3 83 C-3.94932743 80.1520177 -4.25866755 78.03792604 -4.375 75.0625 C-4.42398438 74.20785156 -4.47296875 73.35320312 -4.5234375 72.47265625 C-4 70 -4 70 -1.57983398 68.38769531 C2.0372053 65.04004279 2.18289829 62.07379378 2.80078125 57.32421875 C2.92688278 56.4808345 3.05298431 55.63745026 3.1829071 54.76850891 C3.5795814 52.07732014 3.9457431 49.38291036 4.3125 46.6875 C4.57691859 44.88579413 4.84317559 43.08435705 5.11132812 41.28320312 C5.36362534 39.54711343 5.61432855 37.81079119 5.86328125 36.07421875 C5.97883865 35.26981857 6.09439606 34.4654184 6.2134552 33.63664246 C6.83277671 29.06633103 7.27688049 24.62262055 7 20 C4.89430205 17.31341986 2.84898175 15.89932116 0 14 C-0.29296875 10.7421875 -0.29296875 10.7421875 -0.1875 6.875 C-0.16042969 5.59367188 -0.13335937 4.31234375 -0.10546875 2.9921875 C-0.07066406 2.00476563 -0.03585938 1.01734375 0 0 Z " fill="#363636" transform="translate(195,10)"/>
<path d="M0 0 C0.94230469 0.00193359 1.88460937 0.00386719 2.85546875 0.00585938 C3.83902344 0.01810547 4.82257812 0.03035156 5.8359375 0.04296875 C6.79628906 0.04361328 7.75664063 0.04425781 8.74609375 0.04492188 C25.12539996 0.14493121 25.12539996 0.14493121 27.2109375 2.23046875 C27.28320252 4.08334377 27.2947497 5.93880753 27.2734375 7.79296875 C27.26441406 8.80488281 27.25539063 9.81679688 27.24609375 10.859375 C27.23449219 11.64183594 27.22289062 12.42429687 27.2109375 13.23046875 C25.5609375 13.56046875 23.9109375 13.89046875 22.2109375 14.23046875 C24.5209375 21.49046875 26.8309375 28.75046875 29.2109375 36.23046875 C32.1809375 29.30046875 35.1509375 22.37046875 38.2109375 15.23046875 C36.2309375 13.91046875 34.2509375 12.59046875 32.2109375 11.23046875 C32.5409375 7.60046875 32.8709375 3.97046875 33.2109375 0.23046875 C41.7909375 0.23046875 50.3709375 0.23046875 59.2109375 0.23046875 C61.6532802 12.29851504 58.17429252 19.3615811 52.81542969 30.01074219 C50.98690681 33.68003003 49.22530336 37.37792762 47.46875 41.08203125 C39.86074141 57.07283147 31.94490033 72.81774114 23.2109375 88.23046875 C18.73029848 88.84519057 14.66808248 89.09445352 10.2109375 88.23046875 C6.78029539 85.34204039 4.48375144 82.07571288 2.2109375 78.23046875 C3.62231343 75.08471543 5.33494237 72.77780102 7.6484375 70.23046875 C8.84600024 68.9061661 10.03370733 67.57287821 11.2109375 66.23046875 C11.78513428 65.6595752 12.35933105 65.08868164 12.95092773 64.50048828 C14.54702585 62.21660141 14.54702585 62.21660141 13.56103516 59.30810547 C12.85019775 57.62612061 12.85019775 57.62612061 12.125 55.91015625 C11.87313431 55.29801773 11.62126862 54.68587921 11.36177063 54.05519104 C10.53787158 52.06386711 9.68727125 50.08519893 8.8359375 48.10546875 C8.26695357 46.74440867 7.69998098 45.38250603 7.13500977 44.01977539 C6.0158846 41.32363794 4.8884582 38.63121438 3.75537109 35.94091797 C1.4875259 30.5285946 -0.58918381 25.04442339 -2.64404297 19.54833984 C-3.73078528 16.69966029 -4.86404049 14.1069756 -6.44921875 11.49609375 C-8.34380042 8.29242795 -8.201536 5.87398466 -7.7890625 2.23046875 C-4.56510286 0.08116232 -3.71058842 -0.01796469 0 0 Z " fill="#353535" transform="translate(618.7890625,27.76953125)"/>
<path d="M0 0 C6.10506669 6.6000721 5.00909815 16.14344994 5.140625 24.6484375 C5.15996094 25.75574219 5.17929687 26.86304688 5.19921875 28.00390625 C5.23342319 30.27455514 5.25132861 32.54550121 5.25390625 34.81640625 C5.2773168 41.75710066 5.2773168 41.75710066 8.484375 47.6640625 C9.31453125 48.43492188 10.1446875 49.20578125 11 50 C12.4783226 52.95664519 12.06032783 55.74229737 12 59 C3.78580097 61.16468304 -4.5425917 61.69709547 -13 61 C-13.99 60.34 -14.98 59.68 -16 59 C-17.9417439 59.43652242 -17.9417439 59.43652242 -20.0625 60.375 C-25.15875015 62.0461485 -29.93083056 62.41049345 -35.25 62.5 C-36.01836182 62.53013184 -36.78672363 62.56026367 -37.57836914 62.59130859 C-41.65368972 62.59573108 -44.21462381 62.24266456 -47.4296875 59.62890625 C-51.89163008 55.06524765 -53.20520356 51.43723702 -53.5625 45.125 C-53.39789879 38.80744873 -51.5076307 35.31937698 -47 31 C-39.03126037 23.80869838 -26.24409555 23.53527706 -16 23 C-18.2220499 17.48538354 -18.2220499 17.48538354 -22.3125 13.375 C-26.235218 12.827644 -28.39073341 13.32426909 -32 15 C-33.32784685 16.92718279 -33.32784685 16.92718279 -34.4375 19.125 C-35.61328125 21.28515625 -35.61328125 21.28515625 -37 23 C-40.83479538 24.08160895 -44.26578631 23.2447379 -48 22 C-50.80682444 14.6136199 -50.18230371 6.77829163 -50 -1 C-35.86838369 -5.19986354 -12.21192051 -10.5079316 0 0 Z M-31 39 C-31.77242269 40.83700789 -31.77242269 40.83700789 -32 43 C-31.08984231 44.91325006 -31.08984231 44.91325006 -29 46 C-24.45903138 46.42046006 -21.08417331 46.04208665 -17 44 C-15.64381501 42.87465895 -15.64381501 42.87465895 -15.9375 39.9375 C-15.958125 38.968125 -15.97875 37.99875 -16 37 C-21.52677733 36.80607799 -25.75614911 37.2520497 -31 39 Z " fill="#363636" transform="translate(362,32)"/>
<path d="M0 0 C7.09024268 5.54608819 9.28459779 10.90429182 10.61328125 19.65234375 C11.82592723 30.14969329 12.18869313 41.67277577 6.1484375 50.796875 C0.21220174 57.88679615 -6.76384635 62.60975929 -16 64 C-27.15389057 64.70818353 -37.28446068 64.12822009 -46.2421875 56.875 C-53.45896087 49.1771084 -54.31614573 39.76103222 -54.2109375 29.703125 C-53.57370631 18.5161775 -50.01808446 10.25148374 -42.3125 2.1875 C-30.26224458 -5.77021584 -12.81919515 -7.43990514 0 0 Z M-29 15 C-32.7016188 23.10830784 -31.84614419 32.92920936 -28.94921875 41.16015625 C-27.85672816 43.27769974 -26.88366328 44.53346496 -25 46 C-22.83525377 46.64789174 -22.83525377 46.64789174 -20.5 46.8125 C-19.33984375 46.94591797 -19.33984375 46.94591797 -18.15625 47.08203125 C-15.69874356 47.17664483 -15.69874356 47.17664483 -13 45 C-10.78785287 35.95030721 -10.61265398 25.32082866 -15 17 C-17.28075185 14.43965247 -17.28075185 14.43965247 -20 13 C-23.89649226 13 -25.71995971 13.01471246 -29 15 Z " fill="#363636" transform="translate(546,31)"/>
<path d="M0 0 C6.48709074 3.99966597 11.28712102 10.22680988 13.5 17.5 C13.97680468 21.11614301 14.05507717 24.71524496 14.125 28.359375 C14.15803223 29.38556946 14.19106445 30.41176392 14.22509766 31.46905518 C14.36546808 35.83808449 14.47369549 40.20776043 14.58398438 44.57763672 C14.66934212 47.77618111 14.77167389 50.9738689 14.875 54.171875 C14.89385254 55.16249939 14.91270508 56.15312378 14.93212891 57.17376709 C14.96226074 58.091922 14.99239258 59.0100769 15.0234375 59.95605469 C15.0531665 61.16681671 15.0531665 61.16681671 15.08349609 62.40203857 C15.59889589 64.99814602 16.44264957 65.88101079 18.5 67.5 C22.05766854 68.84614485 23.25943671 68.60439539 26.8125 67.0625 C27.699375 66.546875 28.58625 66.03125 29.5 65.5 C30.10017024 70.30136189 29.70626259 72.74280573 26.8125 76.6875 C22.3737232 82.08714142 17.48379321 86.35812188 10.375 87.25 C2.6988851 87.94438539 -5.44081507 86.50734598 -11.5 81.5 C-18.85824035 73.852868 -19.78490943 65.65619392 -19.7734375 55.453125 C-19.79370564 53.53775435 -19.81455599 51.62238979 -19.8359375 49.70703125 C-19.85861603 46.71593011 -19.87504843 43.72507022 -19.88085938 40.73388672 C-19.89035935 37.82736804 -19.9240762 34.92190721 -19.9609375 32.015625 C-19.95589203 31.12079407 -19.95084656 30.22596313 -19.94564819 29.30401611 C-19.98578413 24.2651472 -19.98578413 24.2651472 -22.41650391 19.96386719 C-25.20796276 17.9857541 -25.20796276 17.9857541 -28.5 17.5 C-31.71712945 18.85814007 -31.71712945 18.85814007 -34.5 20.5 C-35.10942835 13.67440248 -33.82137418 9.82772159 -29.5 4.5 C-22.0154208 -2.61035024 -9.50347597 -4.21961801 0 0 Z " fill="#FFA524" transform="translate(45.5,22.5)"/>
<path d="M0 0 C5.05412371 3.3026947 8.72838219 7.33564872 11 13 C11.59371083 16.74075245 11.62483865 20.44407898 11.65234375 24.2265625 C11.707499 26.41406713 11.7628432 28.601567 11.81835938 30.7890625 C11.88211728 34.21672709 11.93778407 37.64437695 11.98803711 41.07226562 C12.0434371 44.39531407 12.1279365 47.71671158 12.21484375 51.0390625 C12.22023666 52.06311188 12.22562958 53.08716125 12.23118591 54.14224243 C12.36470765 58.92374298 12.4518334 61.26914855 15.38891602 65.18505859 C17.82070359 67.24375953 17.82070359 67.24375953 20.5625 67 C23.08181315 65.96643563 24.93238905 64.76129821 27 63 C28.32314026 67.31458779 27.62122381 70.85509775 26 75 C23.19167143 79.56481044 19.41224436 82.90869662 14.265625 84.5546875 C3.30561303 86.70889675 -5.07973062 84.75709403 -14.25 78.9375 C-19.60500634 73.90016352 -22.02527498 67.41242596 -22.35351562 60.15307617 C-22.44343027 54.47404029 -22.29327753 48.80131135 -22.125 43.125 C-22.04933455 40.18320443 -21.98138878 37.24188167 -21.93161011 34.29953003 C-21.89979632 32.47945918 -21.85277707 30.65957131 -21.7883606 28.84036255 C-21.69427111 24.09703637 -21.73563919 20.76283627 -25 17 C-28.41094915 15.83414809 -28.41094915 15.83414809 -32 16 C-34.30504044 17.33153266 -34.30504044 17.33153266 -36 19 C-36.66 19 -37.32 19 -38 19 C-37.6723981 11.30135532 -33.94390266 5.87030509 -28.5 0.5625 C-19.92925429 -4.79421607 -8.943373 -4.49704578 0 0 Z " fill="#A72DBB" transform="translate(145,24)"/>
<path d="M0 0 C6.73832104 5.29268833 8.84293693 11.95099751 10.6875 20 C10.95884255 22.60488848 11.03137023 25.0734522 11.01953125 27.6875 C11.01671143 28.49574219 11.0138916 29.30398437 11.01098633 30.13671875 C11.0055481 31.05904297 11.0055481 31.05904297 11 32 C9.88625 32.17015625 8.7725 32.3403125 7.625 32.515625 C-2.74940243 34.14712955 -12.85821426 36.27802208 -23 39 C-19.68254386 42.68874687 -19.68254386 42.68874687 -15.15234375 44.16796875 C-10.19947512 44.21164484 -5.82196377 43.63961271 -1.01953125 42.4453125 C1.35590953 41.92152092 3.57562775 41.84358889 6 42 C8.90589221 52.80703714 8.90589221 52.80703714 7 57 C-2.04454103 63.29793959 -12.21406233 64.89769469 -23 64 C-30.18263791 62.63632622 -37.76639197 61.03077504 -42.265625 54.92578125 C-42.94730202 53.73268102 -43.60828604 52.52756169 -44.25 51.3125 C-44.59353516 50.68110107 -44.93707031 50.04970215 -45.29101562 49.39916992 C-50.2453312 40.04489302 -51.62987486 30.41650948 -48.9375 20.0625 C-46.48155874 12.82210714 -42.87408873 5.61861418 -37.1875 0.4375 C-24.92387313 -5.09315525 -12.32392438 -6.32224444 0 0 Z M-24 13 C-25.74565111 16.21639654 -26.204437 18.32013404 -26 22 C-23.23039695 23.38480153 -21.92986935 22.61874033 -19 21.75 C-18.113125 21.49734375 -17.22625 21.2446875 -16.3125 20.984375 C-13.6794387 20.1131686 -13.6794387 20.1131686 -12 17 C-13.69179328 14.95780294 -14.63727666 14.08206694 -17.26171875 13.48828125 C-18.06222656 13.43027344 -18.86273438 13.37226562 -19.6875 13.3125 C-20.49574219 13.24675781 -21.30398438 13.18101563 -22.13671875 13.11328125 C-23.05904297 13.05720703 -23.05904297 13.05720703 -24 13 Z " fill="#353535" transform="translate(476,31)"/>
<path d="M0 0 C1.11761719 0.34224609 1.11761719 0.34224609 2.2578125 0.69140625 C3.39863281 0.99884766 3.39863281 0.99884766 4.5625 1.3125 C6.3828125 2.25390625 6.3828125 2.25390625 7.3828125 5.25390625 C7.3828125 8.55390625 7.3828125 11.85390625 7.3828125 15.25390625 C13.9828125 15.25390625 20.5828125 15.25390625 27.3828125 15.25390625 C27.6542265 26.51758742 27.6542265 26.51758742 25.3828125 31.25390625 C24.3828125 32.25390625 24.3828125 32.25390625 20.56640625 32.3515625 C18.98434203 32.34581763 17.40230219 32.33280218 15.8203125 32.31640625 C11.64375 32.28546875 11.64375 32.28546875 7.3828125 32.25390625 C7.8778125 46.60890625 7.8778125 46.60890625 8.3828125 61.25390625 C11.41312283 62.76906142 14.6815096 62.90215266 18.0078125 63.31640625 C18.71421875 63.40728516 19.420625 63.49816406 20.1484375 63.59179688 C21.8928166 63.81573744 23.63776384 64.03524443 25.3828125 64.25390625 C27.40096816 69.63051941 27.33965488 72.70422045 26.3828125 78.25390625 C15.57691097 82.07199146 3.49230074 84.65370357 -7.6171875 80.25390625 C-13.08279359 76.22024862 -15.10233042 71.8447079 -16.26855469 65.30371094 C-16.9779851 59.09768522 -16.82077845 52.86428279 -16.7421875 46.62890625 C-16.73213148 45.22917311 -16.72301029 43.82943294 -16.71484375 42.4296875 C-16.69144988 39.037577 -16.65866923 35.64583565 -16.6171875 32.25390625 C-19.2571875 32.25390625 -21.8971875 32.25390625 -24.6171875 32.25390625 C-25.68383355 27.93991556 -25.78357637 24.56201997 -24.6171875 20.25390625 C-21.05518601 15.41756802 -16.23486888 11.61679319 -11.58203125 7.86987305 C-10.26304894 6.78508876 -8.97844195 5.65723129 -7.73046875 4.49145508 C-3.24058977 0.31438557 -3.24058977 0.31438557 0 0 Z " fill="#363636" transform="translate(396.6171875,12.74609375)"/>
<path d="M0 0 C2 2 2 2 3 4 C5.60400664 3.49922949 7.31569896 2.81208396 9.625 1.4375 C14.15727474 -0.49291331 18.14437607 -0.25909456 23 0 C23.02730494 2.18742879 23.04653255 4.37495907 23.0625 6.5625 C23.07410156 7.78066406 23.08570313 8.99882813 23.09765625 10.25390625 C23 14 23 14 22 21 C16.72 21.33 11.44 21.66 6 22 C5.78418838 26.56501517 5.62557049 31.11987341 5.5 35.6875 C5.43296875 36.98107422 5.3659375 38.27464844 5.296875 39.60742188 C5.22185299 43.23661158 5.21790314 46.45221891 6 50 C7.75806513 51.7189672 7.75806513 51.7189672 10.03125 52.70703125 C11.3409375 53.46371094 12.650625 54.22039062 14 55 C14 58.63 14 62.26 14 66 C1.13 66 -11.74 66 -25 66 C-25.85221996 62.59112017 -26.10783755 60.19565369 -26.0625 56.75 C-26.05347656 55.85796875 -26.04445313 54.9659375 -26.03515625 54.046875 C-26.02355469 53.37140625 -26.01195312 52.6959375 -26 52 C-24.02 51.34 -22.04 50.68 -20 50 C-20 39.77 -20 29.54 -20 19 C-21.32 18.34 -22.64 17.68 -24 17 C-26.01741814 13.36864734 -26.62577593 10.11224181 -26 6 C-19.11966761 0.92165943 -8.42448685 -1.09206311 0 0 Z " fill="#373737" transform="translate(586,27)"/>
<path d="M0 0 C8.58 0 17.16 0 26 0 C26 1.65 26 3.3 26 5 C25.20335937 4.68289062 24.40671875 4.36578125 23.5859375 4.0390625 C19.21862361 2.7735881 15.14719822 2.5480985 10.625 2.375 C9.79355469 2.33632813 8.96210937 2.29765625 8.10546875 2.2578125 C6.07064844 2.16425754 4.03535584 2.08107287 2 2 C1.67 3.32 1.34 4.64 1 6 C0.67 6 0.34 6 0 6 C0 4.02 0 2.04 0 0 Z " fill="#787878" transform="translate(652,28)"/>
<path d="M0 0 C0.66 0 1.32 0 2 0 C2 1.98 2 3.96 2 6 C-2.62 6 -7.24 6 -12 6 C-8.79619983 3.86413322 -7.98060033 3.76867825 -4.3125 3.875 C-3.10013672 3.90207031 -3.10013672 3.90207031 -1.86328125 3.9296875 C-0.94095703 3.96449219 -0.94095703 3.96449219 0 4 C0 2.68 0 1.36 0 0 Z " fill="#8B8B8B" transform="translate(606,42)"/>
<path d="M0 0 C0.56203125 0.29648438 1.1240625 0.59296875 1.703125 0.8984375 C4.01967305 2.00943503 6.30709092 2.83464706 8.75 3.625 C9.54921875 3.88539062 10.3484375 4.14578125 11.171875 4.4140625 C11.77515625 4.60742188 12.3784375 4.80078125 13 5 C12.67 5.66 12.34 6.32 12 7 C9.06552319 7.34934248 6.85632498 7.51495218 4.265625 5.95703125 C2.625 4.625 2.625 4.625 0 2 C0 1.34 0 0.68 0 0 Z " fill="#707070" transform="translate(516,73)"/>
<path d="M0 0 C0.66 0 1.32 0 2 0 C2 2.97 2 5.94 2 9 C0.35 9 -1.3 9 -3 9 C-2.01 6.03 -1.02 3.06 0 0 Z " fill="#A2A2A2" transform="translate(485,54)"/>
<path d="M0 0 C2.64 0 5.28 0 8 0 C8 2.97 8 5.94 8 9 C7.34 8.67 6.68 8.34 6 8 C5.896875 7.195625 5.79375 6.39125 5.6875 5.5625 C5.3471875 4.2940625 5.3471875 4.2940625 5 3 C2.52363988 1.62533375 2.52363988 1.62533375 0 1 C0 0.67 0 0.34 0 0 Z " fill="#8E8E8E" transform="translate(601,27)"/>
<path d="M0 0 C6.625 -0.25 6.625 -0.25 10 2 C9.67 2.99 9.34 3.98 9 5 C5.7 4.01 2.4 3.02 -1 2 C-0.67 1.34 -0.34 0.68 0 0 Z " fill="#898989" transform="translate(454,42)"/>
<path d="M0 0 C2 2 2 2 2.125 5.625 C2.08375 6.73875 2.0425 7.8525 2 9 C0.68 9 -0.64 9 -2 9 C-1.34 6.03 -0.68 3.06 0 0 Z " fill="#868686" transform="translate(372,82)"/>
<path d="M0 0 C0.33 0 0.66 0 1 0 C1 2.64 1 5.28 1 8 C-0.32 8 -1.64 8 -3 8 C-1.125 2.25 -1.125 2.25 0 0 Z " fill="#7B7B7B" transform="translate(645,33)"/>
<path d="M0 0 C1.32 0 2.64 0 4 0 C3.39816251 2.02045442 2.72693904 4.02111039 2 6 C1.01 6.495 1.01 6.495 0 7 C0 4.69 0 2.38 0 0 Z " fill="#858585" transform="translate(265,79)"/>
</svg>
